<?xml version="1.0" encoding="UTF-8" standalone="no"?>
<!-- Created with Inkscape (http://www.inkscape.org/) -->

<svg
   xmlns:dc="http://purl.org/dc/elements/1.1/"
   xmlns:cc="http://creativecommons.org/ns#"
   xmlns:rdf="http://www.w3.org/1999/02/22-rdf-syntax-ns#"
   xmlns:svg="http://www.w3.org/2000/svg"
   xmlns="http://www.w3.org/2000/svg"
   xmlns:sodipodi="http://sodipodi.sourceforge.net/DTD/sodipodi-0.dtd"
   xmlns:inkscape="http://www.inkscape.org/namespaces/inkscape"
   width="600"
   height="400"
   viewBox="0 0 158.75 105.83333"
   version="1.1"
   id="svg8"
   inkscape:version="0.92.4 (5da689c313, 2019-01-14)"
   sodipodi:docname="prime-re_card.svg"
   inkscape:export-filename="Y:\home@dpz\prime-re.github.io\images\prime-re_card.png"
   inkscape:export-xdpi="96"
   inkscape:export-ydpi="96">
  <defs
     id="defs2" />
  <sodipodi:namedview
     id="base"
     pagecolor="#ffffff"
     bordercolor="#666666"
     borderopacity="1.0"
     inkscape:pageopacity="0.0"
     inkscape:pageshadow="2"
     inkscape:zoom="1.6581654"
     inkscape:cx="236.8523"
     inkscape:cy="174.9902"
     inkscape:document-units="mm"
     inkscape:current-layer="layer1"
     showgrid="false"
     inkscape:window-width="1920"
     inkscape:window-height="1137"
     inkscape:window-x="1912"
     inkscape:window-y="-8"
     inkscape:window-maximized="1"
     units="px" />
  <metadata
     id="metadata5">
    <rdf:RDF>
      <cc:Work
         rdf:about="">
        <dc:format>image/svg+xml</dc:format>
        <dc:type
           rdf:resource="http://purl.org/dc/dcmitype/StillImage" />
        <dc:title></dc:title>
      </cc:Work>
    </rdf:RDF>
  </metadata>
  <g
     inkscape:groupmode="layer"
     id="layer2"
     inkscape:label="Layer 0"
     transform="translate(0,52.916667)"
     style="display:inline"
     sodipodi:insensitive="true">
    <rect
       style="fill:#ffffff;fill-opacity:1;stroke:none;stroke-width:3.59764957;stroke-miterlimit:4;stroke-dasharray:none;stroke-dashoffset:0;stroke-opacity:1"
       id="rect825"
       width="158.75"
       height="105.83334"
       x="-2.1316282e-14"
       y="-52.916672" />
  </g>
  <g
     inkscape:label="Layer 1"
     inkscape:groupmode="layer"
     id="layer1"
     transform="translate(0,-191.16665)">
    <g
       id="g5892"
       transform="matrix(0.8,0,0,0.8,-4.4624158,155.02865)">
      <path
         id="path832"
         d="m 84.634191,119.18085 c -1.346423,-1.42007 -2.52407,-2.8179 -2.616991,-3.10631 -0.133274,-0.41364 0.212399,-0.86059 1.637048,-2.11666 0.993299,-0.87577 2.800945,-2.49773 4.016991,-3.60436 1.216046,-1.10663 2.992559,-2.46914 3.947806,-3.02779 0.955249,-0.55865 1.796595,-1.17151 1.869659,-1.36191 0.202047,-0.52653 -0.630028,-2.41818 -1.810033,-4.11494 -1.586489,-2.281257 -1.586912,-2.796546 -0.0048,-5.839101 1.626717,-3.128311 5.035254,-8.337055 6.502305,-9.936475 1.400979,-1.527384 2.635424,-2.049102 6.692174,-2.828319 1.83716,-0.352882 3.54021,-0.791202 3.78456,-0.974045 0.24435,-0.182845 0.95588,-0.719396 1.58118,-1.192339 1.23153,-0.931471 1.78292,-1.017966 3.58948,-0.563071 1.63357,0.411338 2.86638,1.941386 2.69807,3.348583 -0.0648,0.541642 -0.009,1.38457 0.12451,1.873179 0.29304,1.074441 -0.14313,2.324745 -0.89415,2.563108 -0.30507,0.09683 -1.20861,-0.165237 -2.25021,-0.652658 -0.95724,-0.44795 -1.96351,-0.814454 -2.23615,-0.814454 -0.28478,0 -0.79219,0.448025 -1.1925,1.052934 -0.66289,1.001694 -0.71634,1.346112 -1.09828,7.077604 l -0.40147,6.024674 1.9299,6.35 c 1.82733,6.01251 1.93621,6.51542 2.04854,9.46259 0.0971,2.54878 0.042,3.2295 -0.30422,3.75795 -0.50418,0.76948 -2.08213,1.16279 -2.67871,0.66767 -0.50405,-0.41832 -0.50962,-1.49407 -0.009,-1.77414 0.22843,-0.12783 0.50364,-0.98132 0.67726,-2.10034 l 0.29247,-1.885 -3.22585,-6.44562 -3.22586,-6.44561 0.13489,-4.034899 c 0.0742,-2.219193 0.0602,-4.03452 -0.0311,-4.03406 -0.0913,5.29e-4 -1.45705,0.960009 -3.03502,2.132335 l -2.86903,2.131502 2.52665,2.603832 c 1.38966,1.43211 2.60765,2.92657 2.70666,3.32102 0.11304,0.45043 -0.22706,2.71667 -0.9144,6.09293 -1.25873,6.18296 -1.31874,7.03584 -0.54578,7.75596 0.55921,0.52098 2.86279,1.43817 4.40929,1.75559 0.99108,0.20342 1.35544,0.62207 0.83068,0.95444 -0.40499,0.25652 -7.17565,0.32107 -8.085386,0.0771 -0.317355,-0.0851 -0.619467,-0.29185 -0.671359,-0.45941 -0.253635,-0.81897 0.298124,-10.78446 0.687974,-12.42576 0.595255,-2.50608 0.565931,-2.72804 -0.405127,-3.06655 -1.230614,-0.429 -1.283435,-0.39342 -1.283435,0.86447 0,1.61268 -0.5607,2.20749 -4.177154,4.43123 -5.368166,3.30087 -6.669434,4.22712 -7.095167,5.0504 -0.401532,0.77648 -0.379164,0.869 0.799407,3.30679 0.666874,1.37938 1.212498,2.55689 1.212498,2.61668 0,0.0598 -0.267891,0.10972 -0.595313,0.11096 -0.410975,0.002 -1.353346,-0.79725 -3.043351,-2.57969 z"
         style="fill:#d35f5f;fill-opacity:1;stroke-width:0.26458332"
         inkscape:connector-curvature="0" />
      <path
         id="path830"
         d="m 57.822569,121.05456 c -0.376565,-0.23378 -0.990195,-0.91522 -1.363622,-1.51431 -0.373427,-0.59909 -0.992298,-1.51496 -1.375269,-2.03528 -0.382971,-0.52031 -0.626906,-1.11562 -0.542079,-1.32291 0.155515,-0.38003 2.887765,-2.46668 6.332202,-4.83597 1.02672,-0.70624 1.914538,-1.32948 1.972929,-1.38499 0.05839,-0.0555 -0.438345,-0.68303 -1.103857,-1.39452 -1.531291,-1.63707 -1.995601,-3.03051 -1.533276,-4.60152 0.269149,-0.91459 1.087709,-1.87378 4.385319,-5.138738 2.22992,-2.207845 4.347285,-4.206166 4.705255,-4.440717 0.573006,-0.375449 4.150642,-1.00163 7.939956,-1.389705 2.110187,-0.216109 3.129475,0.454271 3.839292,2.525083 0.241347,0.704106 0.223461,1.071636 -0.0885,1.818251 -0.21504,0.514667 -0.390985,1.198123 -0.390985,1.518787 0,0.586852 -0.990402,1.733599 -1.49724,1.733599 -0.149881,0 -0.954646,-0.596919 -1.788366,-1.32649 -0.833721,-0.72957 -1.609524,-1.268603 -1.724004,-1.197848 -0.114482,0.07075 -0.281337,0.662607 -0.37079,1.315231 -0.08945,0.652627 -0.403738,1.902277 -0.698412,2.777007 -0.294674,0.87472 -0.535771,2.03408 -0.535771,2.57634 0,0.54227 0.609941,3.49282 1.355423,6.55679 1.323806,5.44089 1.348322,5.61363 1.050957,7.40471 -0.167455,1.00862 -0.432173,1.98774 -0.588259,2.17581 -0.425794,0.51305 -2.017201,0.73969 -2.48248,0.35354 -0.562334,-0.46669 -0.486612,-1.45802 0.143875,-1.88355 0.304946,-0.20581 0.605009,-0.78428 0.692943,-1.33587 0.131536,-0.8251 -0.07466,-1.42795 -1.357431,-3.96875 -0.831888,-1.64773 -1.758453,-3.39855 -2.059031,-3.89071 l -0.546506,-0.89483 -0.831495,3.27608 c -0.457322,1.80185 -0.973676,3.6808 -1.147453,4.17546 -0.455443,1.29642 -0.39662,2.34767 0.147062,2.62823 0.254661,0.13141 1.088465,0.38568 1.852899,0.56506 3.225733,0.75691 1.507838,1.61186 -2.708287,1.34784 l -2.376743,-0.14884 -0.0045,-3.57188 c -0.0038,-3.01636 -0.06623,-3.56504 -0.401383,-3.52796 -0.551599,0.061 -6.650224,2.66402 -6.954498,2.9683 -0.208632,0.20863 0.222371,1.90202 1.068396,4.19769 0.16348,0.44359 -0.187417,0.40616 -1.016268,-0.10842 z"
         style="fill:#d35f5f;stroke-width:0.26458332"
         inkscape:connector-curvature="0" />
      <path
         id="path826"
         d="m 127.29889,120.85174 c -0.43656,-0.19616 -1.32953,-0.9134 -1.98437,-1.59386 -0.65485,-0.68047 -1.6316,-1.48663 -2.17056,-1.79148 -1.5102,-0.85422 -1.48017,-1.1847 0.25774,-2.83581 2.0269,-1.92567 2.59533,-2.77905 3.6636,-5.50017 1.26574,-3.22413 2.03105,-4.42124 4.35942,-6.81901 1.13047,-1.16416 2.18267,-2.451835 2.33822,-2.861492 0.15556,-0.409654 0.28283,-2.349164 0.28283,-4.31002 0,-3.131743 -0.0694,-3.700621 -0.571,-4.67913 -0.77377,-1.509535 -0.92883,-4.236828 -0.39434,-6.936126 0.23036,-1.163421 0.4989,-3.305937 0.59675,-4.761145 l 0.17791,-2.645834 -0.55944,0.497987 c -0.92139,0.820167 -1.54301,2.498316 -2.17756,5.878622 -0.57339,3.054549 -0.58073,3.252283 -0.15958,4.304835 0.50341,1.258152 0.57592,2.704274 0.1566,3.123591 -0.19309,0.193093 -0.63711,0.205674 -1.37865,0.03906 -1.62091,-0.364196 -1.85821,-0.655148 -1.67986,-2.059733 0.0839,-0.660567 0.18582,-3.52275 0.22656,-6.360406 0.0845,-5.889169 0.10459,-5.956306 2.89546,-9.698374 1.25679,-1.685131 2.44966,-3.449382 4.03807,-5.972244 0.49543,-0.786892 0.49675,-0.870291 0.0482,-3.02825 -0.54587,-2.626344 -0.36307,-3.499034 1.01213,-4.831925 1.03166,-0.999921 2.67485,-1.331051 4.16489,-0.839292 1.13094,0.373242 2.68425,2.301182 2.48705,3.086877 -0.0757,0.301636 0.0303,0.788253 0.23564,1.081372 0.40797,0.582463 0.47106,2.210169 0.0857,2.210169 -0.13196,0 -0.18735,0.0893 -0.12309,0.198437 0.0643,0.109141 0.0156,0.466329 -0.10815,0.79375 -0.18726,0.49548 -0.42408,0.595313 -1.41215,0.595313 -1.14155,0 -1.19367,0.0347 -1.3566,0.903173 -0.13274,0.707572 0.0367,1.359746 0.78244,3.011365 1.62044,3.588914 1.76651,4.187238 1.7235,7.059632 -0.0573,3.825759 0.34991,4.646632 3.26816,6.588366 1.22954,0.818105 2.49397,1.487464 2.80986,1.487464 0.71065,0 2.28295,0.639649 2.52164,1.025869 0.38353,0.620556 -1.19272,2.678298 -2.0516,2.678298 -0.28832,0 -0.91625,-0.299019 -1.3954,-0.664483 -0.92898,-0.708567 -5.46281,-3.039684 -5.91193,-3.039684 -0.38516,0 -0.64887,1.210326 -0.66296,3.042708 -0.0111,1.440754 0.20685,2.076657 2.35755,6.879167 l 2.36975,5.291667 0.15779,8.069796 c 0.2046,10.46384 0.16552,10.35389 4.21129,11.84729 1.07343,0.39623 1.96344,0.83948 1.9778,0.985 0.0547,0.55446 -1.9193,0.8657 -5.26556,0.83022 l -3.43958,-0.0365 0.04,-1.05833 c 0.18557,-4.90645 0.18119,-4.94652 -0.86935,-7.94606 l -1.01633,-2.90186 0.062,-4.40674 0.062,-4.40674 -1.36883,-1.618644 c -0.75286,-0.890252 -1.4521,-1.526593 -1.55387,-1.414092 -0.10177,0.1125 -0.45648,1.037984 -0.78825,2.05663 -0.81732,2.509466 -1.16337,3.009486 -6.06049,8.757036 -2.3437,2.75071 -4.4968,5.48538 -4.78466,6.07702 -0.77474,1.59239 -0.67184,2.67835 0.42606,4.4961 1.55601,2.57622 1.52987,2.49933 0.84581,2.48762 -0.33254,-0.006 -0.9618,-0.17086 -1.39837,-0.36703 z"
         style="fill:#aad400;stroke-width:0.26458332"
         inkscape:connector-curvature="0" />
      <text
         id="text906"
         y="138.34837"
         x="16.299068"
         style="font-style:normal;font-weight:normal;font-size:10.58333302px;line-height:1.25;font-family:sans-serif;letter-spacing:0px;word-spacing:0px;fill:#aad400;fill-opacity:1;stroke:none;stroke-width:0.26458332"
         xml:space="preserve"><tspan
           style="font-style:normal;font-variant:normal;font-weight:bold;font-stretch:normal;font-size:10.58333302px;font-family:Arial;-inkscape-font-specification:'Arial, Bold';font-variant-ligatures:normal;font-variant-caps:normal;font-variant-numeric:normal;font-feature-settings:normal;text-align:start;writing-mode:lr-tb;text-anchor:start;fill:#aad400;fill-opacity:1;stroke-width:0.26458332"
           y="148.00388"
           x="16.299068"
           id="tspan902"
           sodipodi:role="line" /><tspan
           id="tspan930"
           style="font-style:normal;font-variant:normal;font-weight:bold;font-stretch:normal;font-size:12.69999981px;font-family:Arial;-inkscape-font-specification:'Arial, Bold';font-variant-ligatures:normal;font-variant-caps:normal;font-variant-numeric:normal;font-feature-settings:normal;text-align:start;writing-mode:lr-tb;text-anchor:start;fill:#aad400;fill-opacity:1;stroke-width:0.26458332"
           y="163.01712"
           x="16.299068"
           sodipodi:role="line"><tspan
   id="tspan910"
   style="font-size:12.69999981px;fill:#d35f5f">PRIM<tspan
   id="tspan5868"
   style="fill:#aad400">at</tspan>E R</tspan>esource <tspan
   id="tspan932"
   style="font-size:12.69999981px;fill:#d35f5f">E</tspan>xchange</tspan></text>
      <text
         id="text5866"
         y="145.64789"
         x="47.910046"
         style="font-style:normal;font-weight:normal;font-size:10.58333302px;line-height:1.25;font-family:sans-serif;letter-spacing:0px;word-spacing:0px;fill:#d35f5f;fill-opacity:1;stroke:none;stroke-width:0.26458332"
         xml:space="preserve"><tspan
           style="font-style:normal;font-variant:normal;font-weight:bold;font-stretch:normal;font-size:22.57777786px;font-family:sans-serif;-inkscape-font-specification:'sans-serif Bold';fill:#d35f5f;fill-opacity:1;stroke-width:0.26458332"
           y="145.64789"
           x="47.910046"
           id="tspan5864"
           sodipodi:role="line">PRIME-RE</tspan></text>
    </g>
  </g>
</svg>
