<?xml version="1.0" encoding="UTF-8" standalone="no"?>
<!-- Created with Inkscape (http://www.inkscape.org/) -->

<svg
   xmlns:dc="http://purl.org/dc/elements/1.1/"
   xmlns:cc="http://creativecommons.org/ns#"
   xmlns:rdf="http://www.w3.org/1999/02/22-rdf-syntax-ns#"
   xmlns:svg="http://www.w3.org/2000/svg"
   xmlns="http://www.w3.org/2000/svg"
   xmlns:sodipodi="http://sodipodi.sourceforge.net/DTD/sodipodi-0.dtd"
   xmlns:inkscape="http://www.inkscape.org/namespaces/inkscape"
   width="338.66666mm"
   height="169.33333mm"
   viewBox="0 0 338.66666 169.33333"
   version="1.1"
   id="svg8"
   inkscape:version="0.92.3 (2405546, 2018-03-11)"
   sodipodi:docname="social_preview_image.svg"
   inkscape:export-filename="/home/niko/MRI/brainhack/Resource-Hub/images/social_preview_image.png"
   inkscape:export-xdpi="128"
   inkscape:export-ydpi="128">
  <defs
     id="defs2" />
  <sodipodi:namedview
     id="base"
     pagecolor="#ffffff"
     bordercolor="#666666"
     borderopacity="1.0"
     inkscape:pageopacity="0.0"
     inkscape:pageshadow="2"
     inkscape:zoom="1.5380658"
     inkscape:cx="666.0357"
     inkscape:cy="284.27783"
     inkscape:document-units="mm"
     inkscape:current-layer="layer1"
     showgrid="false"
     inkscape:window-width="1920"
     inkscape:window-height="1017"
     inkscape:window-x="0"
     inkscape:window-y="30"
     inkscape:window-maximized="1"
     fit-margin-top="0"
     fit-margin-left="0"
     fit-margin-right="0"
     fit-margin-bottom="0" />
  <metadata
     id="metadata5">
    <rdf:RDF>
      <cc:Work
         rdf:about="">
        <dc:format>image/svg+xml</dc:format>
        <dc:type
           rdf:resource="http://purl.org/dc/dcmitype/StillImage" />
        <dc:title />
      </cc:Work>
    </rdf:RDF>
  </metadata>
  <g
     inkscape:label="Layer 1"
     inkscape:groupmode="layer"
     id="layer1"
     transform="translate(54.992737,-105.29108)">
    <path
       inkscape:connector-curvature="0"
       style="fill:#d45500;fill-opacity:1;stroke-width:0.26458332"
       d="m 94.178012,197.82026 c -1.346422,-1.42007 -2.52407,-2.8179 -2.61699,-3.10631 -0.133274,-0.41364 0.212399,-0.86059 1.637048,-2.11666 0.993298,-0.87577 2.800944,-2.49773 4.01699,-3.60436 1.216046,-1.10663 2.99256,-2.46914 3.94781,-3.02779 0.95525,-0.55865 1.79659,-1.17151 1.86966,-1.36191 0.20204,-0.52653 -0.63003,-2.41818 -1.81004,-4.11494 -1.586487,-2.28125 -1.586909,-2.79654 -0.005,-5.8391 1.62672,-3.12831 5.03526,-8.33705 6.50231,-9.93647 1.40098,-1.52739 2.63542,-2.0491 6.69217,-2.82832 1.83716,-0.35288 3.54021,-0.7912 3.78456,-0.97405 0.24435,-0.18284 0.95588,-0.71939 1.58118,-1.19233 1.23153,-0.93148 1.78292,-1.01797 3.58948,-0.56308 1.63357,0.41134 2.86638,1.94139 2.69807,3.34859 -0.0648,0.54164 -0.009,1.38457 0.12451,1.87318 0.29304,1.07444 -0.14313,2.32474 -0.89415,2.5631 -0.30507,0.0968 -1.20861,-0.16523 -2.25021,-0.65265 -0.95724,-0.44795 -1.96351,-0.81446 -2.23615,-0.81446 -0.28478,0 -0.79219,0.44803 -1.1925,1.05294 -0.66289,1.00169 -0.71634,1.34611 -1.09828,7.0776 l -0.40147,6.02467 1.9299,6.35 c 1.82733,6.01251 1.93621,6.51542 2.04854,9.46259 0.0971,2.54878 0.042,3.2295 -0.30422,3.75795 -0.50418,0.76948 -2.08213,1.16279 -2.67871,0.66767 -0.50405,-0.41832 -0.50962,-1.49407 -0.009,-1.77414 0.22843,-0.12783 0.50364,-0.98132 0.67726,-2.10034 l 0.29247,-1.885 -3.22585,-6.44562 -3.22586,-6.44561 0.13489,-4.03489 c 0.0742,-2.2192 0.0602,-4.03453 -0.0311,-4.03407 -0.0913,5.3e-4 -1.45705,0.96001 -3.03502,2.13234 l -2.86903,2.1315 2.52665,2.60383 c 1.38966,1.43211 2.60765,2.92657 2.70666,3.32102 0.11304,0.45043 -0.22706,2.71667 -0.9144,6.09293 -1.25873,6.18296 -1.31874,7.03584 -0.54578,7.75596 0.55921,0.52098 2.86279,1.43817 4.40929,1.75559 0.99108,0.20342 1.35544,0.62207 0.83068,0.95444 -0.40499,0.25652 -7.17565,0.32107 -8.08538,0.0771 -0.31736,-0.0851 -0.61947,-0.29185 -0.67136,-0.45941 -0.25364,-0.81897 0.29812,-10.78446 0.68797,-12.42576 0.59526,-2.50608 0.56593,-2.72804 -0.40513,-3.06655 -1.23061,-0.429 -1.28343,-0.39342 -1.28343,0.86447 0,1.61268 -0.5607,2.20749 -4.17716,4.43123 -5.368161,3.30087 -6.669429,4.22712 -7.095162,5.0504 -0.401532,0.77648 -0.379164,0.869 0.799407,3.30679 0.666874,1.37938 1.212498,2.55689 1.212498,2.61668 0,0.0598 -0.267891,0.10972 -0.595313,0.11096 -0.410975,0.002 -1.353346,-0.79725 -3.043351,-2.57969 z"
       id="path832" />
    <path
       inkscape:connector-curvature="0"
       style="fill:#d45500;stroke-width:0.26458332"
       d="m 67.36639,199.69397 c -0.376565,-0.23378 -0.990195,-0.91522 -1.363621,-1.51431 -0.373427,-0.59909 -0.992299,-1.51496 -1.37527,-2.03528 -0.382971,-0.52031 -0.626905,-1.11562 -0.542079,-1.32291 0.155516,-0.38003 2.887765,-2.46668 6.332202,-4.83597 1.026721,-0.70624 1.914538,-1.32948 1.972929,-1.38499 0.05839,-0.0555 -0.438344,-0.68303 -1.103856,-1.39452 -1.531292,-1.63707 -1.995601,-3.03051 -1.533276,-4.60152 0.269149,-0.91459 1.087708,-1.87378 4.385318,-5.13873 2.229921,-2.20785 4.347285,-4.20617 4.705255,-4.44072 0.573007,-0.37545 4.150642,-1.00163 7.939956,-1.38971 2.110187,-0.21611 3.129475,0.45427 3.839292,2.52509 0.241347,0.7041 0.223461,1.07163 -0.0885,1.81825 -0.21504,0.51466 -0.390985,1.19812 -0.390985,1.51878 0,0.58686 -0.990402,1.7336 -1.49724,1.7336 -0.149881,0 -0.954646,-0.59692 -1.788366,-1.32649 -0.833721,-0.72957 -1.609523,-1.2686 -1.724004,-1.19784 -0.114481,0.0707 -0.281336,0.6626 -0.37079,1.31523 -0.08945,0.65262 -0.403738,1.90227 -0.698412,2.777 -0.294674,0.87472 -0.535771,2.03408 -0.535771,2.57634 0,0.54227 0.609942,3.49282 1.355423,6.55679 1.323807,5.44089 1.348322,5.61363 1.050957,7.40471 -0.167455,1.00862 -0.432173,1.98774 -0.588258,2.17581 -0.425794,0.51305 -2.017201,0.73969 -2.482481,0.35354 -0.562333,-0.46669 -0.486611,-1.45802 0.143876,-1.88355 0.304946,-0.20581 0.605008,-0.78428 0.692942,-1.33587 0.131537,-0.8251 -0.07466,-1.42795 -1.357431,-3.96875 -0.831888,-1.64773 -1.758453,-3.39855 -2.059031,-3.89071 l -0.546506,-0.89483 -0.831495,3.27608 c -0.457322,1.80185 -0.973676,3.6808 -1.147453,4.17546 -0.455443,1.29642 -0.39662,2.34767 0.147063,2.62823 0.254661,0.13141 1.088464,0.38568 1.852898,0.56506 3.225734,0.75691 1.507839,1.61186 -2.708287,1.34784 l -2.376743,-0.14884 -0.0045,-3.57188 c -0.0038,-3.01636 -0.06623,-3.56504 -0.401382,-3.52796 -0.5516,0.061 -6.650225,2.66402 -6.954498,2.9683 -0.208633,0.20863 0.22237,1.90202 1.068395,4.19769 0.163481,0.44359 -0.187417,0.40616 -1.016268,-0.10842 z"
       id="path830" />
    <path
       inkscape:connector-curvature="0"
       style="fill:#88aa00;stroke-width:0.26458332"
       d="m 136.84271,199.49115 c -0.43656,-0.19616 -1.32953,-0.9134 -1.98437,-1.59386 -0.65485,-0.68047 -1.6316,-1.48663 -2.17056,-1.79148 -1.5102,-0.85422 -1.48017,-1.1847 0.25774,-2.83581 2.0269,-1.92567 2.59533,-2.77905 3.6636,-5.50017 1.26574,-3.22413 2.03105,-4.42124 4.35942,-6.81901 1.13047,-1.16416 2.18267,-2.45183 2.33822,-2.86149 0.15556,-0.40965 0.28283,-2.34916 0.28283,-4.31002 0,-3.13174 -0.0694,-3.70062 -0.571,-4.67913 -0.77377,-1.50953 -0.92883,-4.23683 -0.39434,-6.93612 0.23036,-1.16343 0.4989,-3.30594 0.59675,-4.76115 l 0.17791,-2.64583 -0.55944,0.49798 c -0.92139,0.82017 -1.54301,2.49832 -2.17756,5.87863 -0.57339,3.05454 -0.58073,3.25228 -0.15958,4.30483 0.50341,1.25815 0.57592,2.70427 0.1566,3.12359 -0.19309,0.19309 -0.63711,0.20568 -1.37865,0.0391 -1.62091,-0.36419 -1.85821,-0.65515 -1.67986,-2.05973 0.0839,-0.66057 0.18582,-3.52275 0.22656,-6.36041 0.0845,-5.88917 0.10459,-5.9563 2.89546,-9.69837 1.25679,-1.68513 2.44966,-3.44938 4.03807,-5.97224 0.49543,-0.7869 0.49675,-0.8703 0.0482,-3.02826 -0.54587,-2.62634 -0.36307,-3.49903 1.01213,-4.83192 1.03166,-0.99992 2.67485,-1.33105 4.16489,-0.83929 1.13094,0.37324 2.68425,2.30118 2.48705,3.08687 -0.0757,0.30164 0.0303,0.78826 0.23564,1.08138 0.40797,0.58246 0.47106,2.21017 0.0857,2.21017 -0.13196,0 -0.18735,0.0893 -0.12309,0.19843 0.0643,0.10914 0.0156,0.46633 -0.10815,0.79375 -0.18726,0.49548 -0.42408,0.59532 -1.41215,0.59532 -1.14155,0 -1.19367,0.0347 -1.3566,0.90317 -0.13274,0.70757 0.0367,1.35974 0.78244,3.01136 1.62044,3.58892 1.76651,4.18724 1.7235,7.05964 -0.0573,3.82575 0.34991,4.64663 3.26816,6.58836 1.22954,0.81811 2.49397,1.48747 2.80986,1.48747 0.71065,0 2.28295,0.63965 2.52164,1.02586 0.38353,0.62056 -1.19272,2.6783 -2.0516,2.6783 -0.28832,0 -0.91625,-0.29902 -1.3954,-0.66448 -0.92898,-0.70857 -5.46281,-3.03968 -5.91193,-3.03968 -0.38516,0 -0.64887,1.21032 -0.66296,3.0427 -0.0111,1.44076 0.20685,2.07666 2.35755,6.87917 l 2.36975,5.29167 0.15779,8.06979 c 0.2046,10.46384 0.16552,10.35389 4.21129,11.84729 1.07343,0.39623 1.96344,0.83948 1.9778,0.985 0.0547,0.55446 -1.9193,0.8657 -5.26556,0.83022 l -3.43958,-0.0365 0.04,-1.05833 c 0.18557,-4.90645 0.18119,-4.94652 -0.86935,-7.94606 l -1.01633,-2.90186 0.062,-4.40674 0.062,-4.40674 -1.36883,-1.61864 c -0.75286,-0.89025 -1.4521,-1.52659 -1.55387,-1.41409 -0.10177,0.1125 -0.45648,1.03798 -0.78825,2.05663 -0.81732,2.50946 -1.16337,3.00948 -6.06049,8.75703 -2.3437,2.75071 -4.4968,5.48538 -4.78466,6.07702 -0.77474,1.59239 -0.67184,2.67835 0.42606,4.4961 1.55601,2.57622 1.52987,2.49933 0.84581,2.48762 -0.33254,-0.006 -0.9618,-0.17086 -1.39837,-0.36703 z"
       id="path826" />
    <text
       xml:space="preserve"
       style="font-style:normal;font-weight:normal;font-size:10.58333302px;line-height:1.25;font-family:sans-serif;letter-spacing:0px;word-spacing:0px;fill:#aad400;fill-opacity:1;stroke:none;stroke-width:0.26458332"
       x="25.84289"
       y="216.98779"
       id="text906"><tspan
         sodipodi:role="line"
         id="tspan902"
         x="25.84289"
         y="226.52078"
         style="font-style:normal;font-variant:normal;font-weight:bold;font-stretch:normal;font-size:10.58333302px;font-family:Arial;-inkscape-font-specification:'Arial, Bold';font-variant-ligatures:normal;font-variant-caps:normal;font-variant-numeric:normal;font-feature-settings:normal;text-align:start;writing-mode:lr-tb;text-anchor:start;fill:#aad400;fill-opacity:1;stroke-width:0.26458332" /><tspan
         sodipodi:role="line"
         x="25.84289"
         y="241.65654"
         style="font-style:normal;font-variant:normal;font-weight:bold;font-stretch:normal;font-size:12.69999981px;font-family:Arial;-inkscape-font-specification:'Arial, Bold';font-variant-ligatures:normal;font-variant-caps:normal;font-variant-numeric:normal;font-feature-settings:normal;text-align:start;writing-mode:lr-tb;text-anchor:start;fill:#aad400;fill-opacity:1;stroke-width:0.26458332"
         id="tspan930"><tspan
   style="font-size:12.69999981px;fill:#d35f5f"
   id="tspan910"><tspan
     style="fill:#d45500"
     id="tspan835">PRIM</tspan><tspan
     style="fill:#88aa00"
     id="tspan5868">at</tspan><tspan
     style="fill:#d45500"
     id="tspan837">E R</tspan></tspan><tspan
   style="fill:#88aa00"
   id="tspan851">esource</tspan> <tspan
   style="font-size:12.69999981px;fill:#d45500"
   id="tspan932">E</tspan><tspan
   style="fill:#88aa00"
   id="tspan849">xchange</tspan></tspan></text>
    <text
       xml:space="preserve"
       style="font-style:normal;font-weight:normal;font-size:10.58333302px;line-height:1.25;font-family:sans-serif;letter-spacing:0px;word-spacing:0px;fill:#d45500;fill-opacity:1;stroke:none;stroke-width:0.26458332;"
       x="57.453869"
       y="224.28731"
       id="text5866"><tspan
         sodipodi:role="line"
         id="tspan5864"
         x="57.453869"
         y="224.28731"
         style="font-style:normal;font-variant:normal;font-weight:bold;font-stretch:normal;font-size:22.57777786px;font-family:sans-serif;-inkscape-font-specification:'sans-serif Bold';fill:#d45500;fill-opacity:1;stroke-width:0.26458332;">PRIME-RE</tspan></text>
  </g>
</svg>
